<svg xmlns="http://www.w3.org/2000/svg" xmlns:xlink="http://www.w3.org/1999/xlink" viewBox="0 0 421.11 356.4"><defs><style>.cls-1,.cls-2{fill:#f2ab1c;}.cls-1,.cls-4,.cls-5,.cls-7{stroke:#63372c;stroke-miterlimit:10;}.cls-1,.cls-5,.cls-7{stroke-width:4px;}.cls-3{clip-path:url(#clip-path);}.cls-4,.cls-5{fill:none;}.cls-4{stroke-width:3px;opacity:0.16;}.cls-6,.cls-7{fill:#63372c;}.cls-8{fill:#ea5b0c;}.cls-9{fill:#f1ce2c;}.cls-10{fill:#af9625;}.cls-11{fill:#0d0b03;}</style><clipPath id="clip-path" transform="translate(52.19 6.12)"><circle class="cls-1" cx="162.09" cy="172.47" r="160.09"/></clipPath></defs><g id="Calque_2" data-name="Calque 2"><g id="Calque_1-2" data-name="Calque 1"><circle class="cls-2" cx="214.28" cy="178.59" r="160.09"/><g class="cls-3"><polygon class="cls-4" points="252.45 68.2 252.49 23.89 210.7 1.7 168.87 23.82 168.84 68.14 210.63 90.33 252.45 68.2"/><polygon class="cls-4" points="210.59 132.07 210.63 87.76 168.84 65.56 127.01 87.69 126.98 132 168.77 154.2 210.59 132.07"/><polygon class="cls-4" points="168.73 198.17 168.77 153.86 126.98 131.66 85.15 153.79 85.12 198.1 126.91 220.29 168.73 198.17"/><polygon class="cls-4" points="85.12 198.1 85.15 153.78 43.36 131.59 1.54 153.72 1.5 198.03 43.29 220.22 85.12 198.1"/><polygon class="cls-4" points="126.98 132 127.01 87.68 85.22 65.49 43.4 87.62 43.36 131.93 85.15 154.12 126.98 132"/><polygon class="cls-4" points="126.87 264.27 126.91 219.95 85.12 197.76 43.29 219.89 43.26 264.2 85.04 286.39 126.87 264.27"/><polygon class="cls-4" points="168.62 332.44 168.66 288.13 126.87 265.93 85.04 288.06 85.01 332.37 126.8 354.56 168.62 332.44"/><polygon class="cls-4" points="210.49 264.34 210.52 220.02 168.73 197.83 126.91 219.95 126.87 264.27 168.66 286.46 210.49 264.34"/><polygon class="cls-4" points="252.24 332.51 252.27 288.19 210.48 266 168.66 288.13 168.62 332.44 210.41 354.63 252.24 332.51"/><polygon class="cls-4" points="252.35 198.24 252.38 153.92 210.59 131.73 168.77 153.86 168.73 198.17 210.52 220.36 252.35 198.24"/><polygon class="cls-4" points="294.1 264.4 294.14 220.09 252.35 197.9 210.52 220.02 210.49 264.34 252.28 286.53 294.1 264.4"/><polygon class="cls-4" points="335.85 332.58 335.89 288.26 294.1 266.07 252.27 288.19 252.24 332.51 294.03 354.7 335.85 332.58"/><polygon class="cls-4" points="294.21 132.14 294.24 87.83 252.46 65.63 210.63 87.76 210.59 132.07 252.38 154.26 294.21 132.14"/><polygon class="cls-4" points="335.96 198.31 336 153.99 294.21 131.8 252.38 153.92 252.35 198.24 294.14 220.43 335.96 198.31"/><polygon class="cls-4" points="377.72 264.47 377.75 220.16 335.96 197.97 294.14 220.09 294.1 264.4 335.89 286.6 377.72 264.47"/><polygon class="cls-4" points="419.58 198.38 419.61 154.06 377.82 131.87 336 153.99 335.96 198.31 377.75 220.5 419.58 198.38"/><polygon class="cls-4" points="377.71 132.21 377.74 87.9 335.95 65.7 294.13 87.83 294.09 132.14 335.88 154.34 377.71 132.21"/><polygon class="cls-4" points="335.83 68.28 335.87 23.96 294.08 1.77 252.25 23.89 252.22 68.21 294.01 90.4 335.83 68.28"/></g><circle class="cls-5" cx="214.28" cy="178.59" r="160.09"/></g><g id="abeille"><path class="cls-6" d="M104.6,238c-.72-1.15-1-3.37-1-7.42v-1.23c0-4,.2-9.16,1.4-12.33,1.37-3.57,3.89-4.68,6.74-5.08a9.68,9.68,0,0,1,1.88-.15,6.21,6.21,0,0,1,6,3.92c1.89,3.89,2.61,11.46,2.65,16.06v.4c0,4.24-.64,5.71-1.64,6.42a2.6,2.6,0,0,1-1.53.48,3.36,3.36,0,0,1-2-.71c-1-.88-1.45-2.34-1.57-5.64-.08-1.34-.08-3-.08-4.71a25.13,25.13,0,0,1-5.33.67l0,2.42c0,1.31,0,2.54-.12,3.53-.32,3.37-1.32,4.08-2.44,4.36a4,4,0,0,1-1,.12A2.19,2.19,0,0,1,104.6,238Zm10.3-14.16.4,0a26.15,26.15,0,0,0-.24-2.74c-.44-3.13-1.48-4.32-2.52-4.32-1.36,0-2.41,2-2.45,7.46A45,45,0,0,1,114.9,223.83Z" transform="translate(52.19 6.12)"/><path class="cls-6" d="M136.91,236l0-.2a6.19,6.19,0,0,1-1.4,1.5,7.33,7.33,0,0,1-4.61,1.75l-.64,0a6.46,6.46,0,0,1-5-3.25,10.78,10.78,0,0,1-1.41-5.51,10,10,0,0,1,.16-1.91,9.66,9.66,0,0,1,3.17-5.79,5.87,5.87,0,0,1,3.81-1.39l.72,0a5,5,0,0,1,3.85,2,4.91,4.91,0,0,1,.52.79l0-2.38,0-2.1c0-4.68.24-6.27,1.24-7.18a4.52,4.52,0,0,1,2.93-1,3.15,3.15,0,0,1,.92.08,2.79,2.79,0,0,1,2,1.78c.32.72.56,1.43.64,4.13,0,1.23,0,2.81,0,4.6,0,2.18,0,4.6-.08,6.86a48.18,48.18,0,0,1-.76,9.36c-.52,1.78-1.36,1.78-2.52,1.78S137.71,239.93,136.91,236Zm-3.45-1.95a10.3,10.3,0,0,0,1.65-4.84l.08-1.15c0-1.42-.32-2.61-1-2.85a1.17,1.17,0,0,0-.36-.08c-.8,0-2,1.07-2.56,2.7a9.47,9.47,0,0,0-.56,3.37,7,7,0,0,0,.36,2.46c.28.71.72,1.07,1.16,1.07A1.71,1.71,0,0,0,133.46,234.06Z" transform="translate(52.19 6.12)"/><path class="cls-6" d="M150,237.47a11.17,11.17,0,0,1-3.81-5.59,17.4,17.4,0,0,1-.8-5.47,21.58,21.58,0,0,1,.12-2.3,17.4,17.4,0,0,1,2.08-7,8.28,8.28,0,0,1,4.73-4.09,8.74,8.74,0,0,1,2.29-.31,8.32,8.32,0,0,1,4.69,1.39c2.2,1.46,4.05,4.2,4.73,8.09a22.49,22.49,0,0,1,.36,4.12,21.91,21.91,0,0,1-.16,2.82,7.37,7.37,0,0,0,3-2.15c.81-.83,1.45-1.66,2-1.82l.2,0c.4,0,.72.32.72,1a3.14,3.14,0,0,1-.08.56,7.83,7.83,0,0,1-3.09,4,8.78,8.78,0,0,1-3.28,1.27,12,12,0,0,1-.89,2.46,8.17,8.17,0,0,1-6.57,4.84c-.4,0-.8.08-1.16.08A8.46,8.46,0,0,1,150,237.47Zm6.89-5.31a9.47,9.47,0,0,1-3.52-1.43,5.28,5.28,0,0,1-.77-.63c.28,2.54,1,4.87,1.81,5.43a.65.65,0,0,0,.36.12C155.55,235.65,156.35,234.42,156.91,232.16Zm.72-8a27,27,0,0,0-.36-4.8c-.4-2.14-1.16-2.89-1.88-2.89a2.15,2.15,0,0,0-.68.27,3.06,3.06,0,0,0-1.08,1.51,18.52,18.52,0,0,0-.61,5v.47c0,2,.49,3,1.69,3.85a10.77,10.77,0,0,0,2.68,1.27A45.61,45.61,0,0,0,157.63,224.11Z" transform="translate(52.19 6.12)"/><path class="cls-6" d="M169.38,239.77c-1.16,0-1.85,0-2.29-1.74a57.19,57.19,0,0,1-.64-9.16c0-2,0-4.13,0-6.07s0-3.81,0-5.12a11.37,11.37,0,0,1,.52-4,2.46,2.46,0,0,1,1.61-1.71,2.58,2.58,0,0,1,.8-.12,3.71,3.71,0,0,1,2.44,1c.56.63.84,1.54,1,3.64a10.75,10.75,0,0,1,.56-1.5,4.15,4.15,0,0,1,2.8-2.66,6.45,6.45,0,0,1,1.57-.24,4.28,4.28,0,0,1,3.08,1.19c1.41,1.35,2.25,3.93,2.41,6.74l0,1.19a13.8,13.8,0,0,1-1.49,6.63,5.36,5.36,0,0,1-4.48,2.69h-.12a5,5,0,0,1-3.73-1.66c-.08-.08-.12-.16-.2-.2a48.41,48.41,0,0,1-.44,7.42c-.65,3.64-2.17,3.72-3.29,3.72Zm8.06-17.25a9.17,9.17,0,0,0,.36-2.62,8.32,8.32,0,0,0-.48-2.93c-.25-.63-.57-1-.93-1s-.76.32-1.12,1a18.83,18.83,0,0,0-1.4,5.95l0,.67c0,1.31.32,2,1,2h.08C175.63,225.5,176.87,224.35,177.44,222.52Z" transform="translate(52.19 6.12)"/><path class="cls-6" d="M194.11,239.22c-5.73,0-7.37-8.13-7.37-12.85,0-2.22.12-4.8.32-7.06l-.61,0c-2.28-.2-2.56-.63-2.6-1.15l0-.36a1.41,1.41,0,0,1,.4-1c.28-.31.8-.35,3-.39h.12c.12-.92.24-3.93,1.76-4.64a3.72,3.72,0,0,1,1.56-.24c1.25,0,2.69.24,3.13.87.56.79.72,2.14.72,4,.92,0,1.69.08,2.33.15,2.08.24,2.32.72,2.36,1.27s-.16,1-2.44,1.31c-.6.08-1.45.2-2.33.24-.08,1.11-.12,2.3-.24,3.41v1.35c0,1.23-.12,3.05-.12,4.76,0,1,0,1.94.12,2.73.28,2.15,1,3.1,1.44,3.14h0c.45,0,.77-.88,1-2.14a12.34,12.34,0,0,1,.92-3.93,2,2,0,0,1,1.68-.87,2.51,2.51,0,0,1,.76.12c.85.15,1.45.63,1.53,2.3v.23c0,2-.93,8.81-7.1,8.81Z" transform="translate(52.19 6.12)"/><path class="cls-6" d="M203.57,229.66q-.12-1.49-.12-3.21V225.3a17.53,17.53,0,0,1,4.13-10.71,5.56,5.56,0,0,1,4.09-2.22,6.34,6.34,0,0,1,3.37,1.27c2.16,1.07,3.2,3.41,3.44,5.87a12.13,12.13,0,0,1,0,1.23,10.88,10.88,0,0,1-1.24,5.31c-1.28,2.06-3.61,2.82-5.29,3.37a5.44,5.44,0,0,1-1.52.32,7.16,7.16,0,0,0-.12,1.27v.4c.2,1.86,1.52,3.25,2.48,3.25,1.56,0,2.45-3.25,4.57-3.37.4,0,.6.39.68,1l0,.43c0,2.38-1.76,6.75-5.53,6.75C207.5,239.5,204.25,236.28,203.57,229.66ZM215,219.39v-.32a3.39,3.39,0,0,0-.53-1.43c-.36-.47-.68-.67-1-.67-2,0-3.16,8.76-3.16,8.76S215,222.52,215,219.39Z" transform="translate(52.19 6.12)"/><path class="cls-6" d="M149,266.08a1.63,1.63,0,0,1-.76-1.17,8.45,8.45,0,0,0-.17-1s0,0,0,0a7.75,7.75,0,0,1-.8.6,8.16,8.16,0,0,1-3.57,1.23h-.23a4.9,4.9,0,0,1-3.61-1.48,7.5,7.5,0,0,1-1.66-4.82l-.06-1.42a13.42,13.42,0,0,1,.79-5,2.2,2.2,0,0,1,2.19-1.47,2.5,2.5,0,0,1,.56,0,2.32,2.32,0,0,1,2.08,1.25,2,2,0,0,1,.14.8,20,20,0,0,1-.37,2.64,21.07,21.07,0,0,0-.26,3.21,10.58,10.58,0,0,0,.1,1.54c.2,1.36.73,2.22,1.62,2.46a2.49,2.49,0,0,0,.59.06,4.07,4.07,0,0,0,2.09-.62,1.07,1.07,0,0,0,.46-.95l0-.63c-.1-.73-.17-1.75-.3-3.24-.13-1.34-.26-3.09-.26-4.27v-.33c.06-1.16.39-1.57,1.42-1.79a6.89,6.89,0,0,1,1.19-.11,3.24,3.24,0,0,1,2.35.78c.73.73.76,2.16.76,4.06v2.94a27,27,0,0,1-.3,5c-.36,1.64-1.15,1.9-1.91,2a4.78,4.78,0,0,1-.53,0A2.83,2.83,0,0,1,149,266.08Z" transform="translate(52.19 6.12)"/><path class="cls-6" d="M167.31,266.68a1.47,1.47,0,0,1-1.36-1.16,16.69,16.69,0,0,1-.23-3.26,26.54,26.54,0,0,0-.39-4.93c-.3-1.42-.9-2.29-1.69-2.52l-.14,0c-.82,0-2.51,1.7-2.51,5.09v.37c0,.54.13,1.47.13,2.46,0,1.73-.33,3.63-1.92,3.8a9.94,9.94,0,0,1-1.16.06,3.12,3.12,0,0,1-2.61-.95c-.6-.84-.63-2.31-.63-4v-1.75c0-1.58-.23-3.22-.23-4.54a6.91,6.91,0,0,1,.2-1.77c.43-1.38,1.62-1.59,2.64-1.66h.53a4.16,4.16,0,0,1,1.83.35,1.68,1.68,0,0,1,.79,1.19c.1.43.13.84.16.92l0,0c.06,0,.2-.22.73-.61a7.27,7.27,0,0,1,3.87-1c2,0,4,.58,4.67,1.21,1.72,1.79,1.65,3.37,1.78,4.79,0,.41,0,.87,0,1.32a13.37,13.37,0,0,1-.83,5.1c-.6,1.18-2.22,1.46-3.18,1.46A4.11,4.11,0,0,1,167.31,266.68Z" transform="translate(52.19 6.12)"/><path class="cls-6" d="M173.5,261.24a15.74,15.74,0,0,1-.1-1.75v-.62a8.12,8.12,0,0,1,3.41-5.83,5.6,5.6,0,0,1,3.38-1.21,7,7,0,0,1,2.78.69,3.9,3.9,0,0,1,2.84,3.19,3.71,3.71,0,0,1,0,.67,4.39,4.39,0,0,1-1,2.9c-1.06,1.12-3,1.53-4.37,1.83a6.34,6.34,0,0,1-1.26.17,3,3,0,0,0-.1.69v.22a2.29,2.29,0,0,0,2.06,1.77c1.29,0,2-1.77,3.77-1.83.33,0,.5.21.56.56l0,.24A4.31,4.31,0,0,1,181,266.6C176.75,266.6,174.06,264.85,173.5,261.24Zm9.47-5.59v-.17a1.61,1.61,0,0,0-.43-.78,1.27,1.27,0,0,0-.8-.37c-1.62,0-2.61,4.77-2.61,4.77S183,257.35,183,255.65Z" transform="translate(52.19 6.12)"/><path class="cls-6" d="M105.52,305.06c-.72-1.15-1-3.37-1-7.42v-1.23c0-4,.2-9.16,1.41-12.33,1.36-3.57,3.89-4.68,6.73-5.08a10.57,10.57,0,0,1,1.89-.15,6.23,6.23,0,0,1,6,3.92c1.88,3.89,2.6,11.46,2.64,16.06v.4c0,4.24-.64,5.71-1.64,6.42a2.55,2.55,0,0,1-1.52.48,3.39,3.39,0,0,1-2-.71c-1-.88-1.44-2.34-1.56-5.64-.08-1.34-.08-3-.08-4.71a25.21,25.21,0,0,1-5.33.67l0,2.42c0,1.31,0,2.54-.12,3.53-.32,3.37-1.32,4.08-2.45,4.36a4,4,0,0,1-1,.12A2.18,2.18,0,0,1,105.52,305.06Zm10.3-14.16.4,0a26.15,26.15,0,0,0-.24-2.74c-.44-3.13-1.48-4.32-2.53-4.32-1.36,0-2.4,2-2.44,7.46A44.72,44.72,0,0,1,115.82,290.9Z" transform="translate(52.19 6.12)"/><path class="cls-6" d="M127.56,306.17c-1.2-.28-2.24-.83-2.64-5.2-.12-1.46-.16-3.33-.16-5.35,0-4,.2-8.53.48-11.46.44-4.44,1.08-5.31,1.76-5.75a2.92,2.92,0,0,1,1.77-.52h.52c.76,0,1.52.24,2,2.07a7.39,7.39,0,0,1,.24,1.11,11.61,11.61,0,0,1,3.85-.64,12.69,12.69,0,0,1,3.13.4,5.87,5.87,0,0,1,4.41,3.77,8,8,0,0,1,.48,2.81,6.25,6.25,0,0,1-.76,3.21,4.5,4.5,0,0,1-2.89,1.91,6,6,0,0,1,3.69,3.53,6.66,6.66,0,0,1,.36,2.26,8.63,8.63,0,0,1-2.17,5.79,8.53,8.53,0,0,1-6.09,2.06,15,15,0,0,1-1.92-.12,23.29,23.29,0,0,1-3.29-.75,2.17,2.17,0,0,1-1.89,1A6.64,6.64,0,0,1,127.56,306.17Zm10.63-5.55a3.42,3.42,0,0,0,.2-1.27,4.53,4.53,0,0,0-2.49-4.13,5.24,5.24,0,0,0-2.08-.39h-.32c-.49,0-1,0-1.41.08.16,1.46.28,3.25.44,4.64.24,2.14.48,3.25,1.69,3.45l.32,0A4.07,4.07,0,0,0,138.19,300.62Zm-1-11.66a3.26,3.26,0,0,0,.85-2.1,2.84,2.84,0,0,0-.77-1.95,2.57,2.57,0,0,0-1.84-1,2,2,0,0,0-1.72,1c-.85,1.35-1.25,4.25-1.57,7.38C133.94,291.3,136.1,290.23,137.18,289Z" transform="translate(52.19 6.12)"/><path class="cls-6" d="M145.8,296.73q-.12-1.49-.12-3.21v-1.15a17.59,17.59,0,0,1,4.13-10.71,5.56,5.56,0,0,1,4.09-2.22,6.31,6.31,0,0,1,3.37,1.27c2.16,1.07,3.2,3.41,3.44,5.87a12.13,12.13,0,0,1,0,1.23,10.88,10.88,0,0,1-1.24,5.31c-1.28,2.06-3.61,2.82-5.29,3.37a5.44,5.44,0,0,1-1.52.32,7.16,7.16,0,0,0-.12,1.27v.4c.2,1.86,1.52,3.25,2.48,3.25,1.57,0,2.45-3.25,4.57-3.37.4,0,.6.39.68,1l0,.43c0,2.38-1.76,6.75-5.53,6.75C149.73,306.57,146.48,303.35,145.8,296.73Zm11.47-10.27v-.32a3.42,3.42,0,0,0-.52-1.42c-.36-.48-.69-.68-1-.68-2,0-3.16,8.76-3.16,8.76S157.27,289.59,157.27,286.46Z" transform="translate(52.19 6.12)"/><path class="cls-6" d="M162.92,296.69l0-2.54c0-3.09.4-5.59,1.4-6.26a4.48,4.48,0,0,1,2.25-.48,4,4,0,0,1,2.64.79c1.29,1.15,1.33,3,1.49,6.19l0,1.35c0,3.25-.44,10.67-3.73,10.67C163.32,306.41,162.92,300.62,162.92,296.69Zm3.37-11.18a3,3,0,0,1-2.13-.87,3.72,3.72,0,0,1-.84-2.42v-.32a3.4,3.4,0,0,1,1.28-2.46,3,3,0,0,1,1.81-.48H167a2.6,2.6,0,0,1,1.72.72,3.48,3.48,0,0,1,.84,2.22V282a4.13,4.13,0,0,1-.88,2.34,3,3,0,0,1-2.08,1.15Z" transform="translate(52.19 6.12)"/><path class="cls-6" d="M173.26,304.74c-.52-1.66-.68-5-.8-8.88,0-2.14-.08-4.44-.08-6.51,0-1.66,0-3.21.08-4.36.08-2.58.28-3.25.64-4a2.65,2.65,0,0,1,2-1.67,3.52,3.52,0,0,1,.68-.08H176a4.7,4.7,0,0,1,3,1c1,.88,1.21,2.34,1.45,6.82.16,2.3.28,5.32.28,8.25a38.85,38.85,0,0,1-.52,7.38c1.2,0,2.4,0,3.28,0,1.81,0,2.81.12,3.25.71a1.48,1.48,0,0,1,.28.92,2.21,2.21,0,0,1-.4,1.27c-.48.59-1.28.63-3,.71-1.32.08-3.28.12-5,.12h-1.32a7.1,7.1,0,0,1-1.28.08C174.62,306.41,173.78,306.41,173.26,304.74Z" transform="translate(52.19 6.12)"/><path class="cls-6" d="M188.85,304.74c-.52-1.66-.68-5-.8-8.88,0-2.14-.08-4.44-.08-6.51,0-1.66,0-3.21.08-4.36.08-2.58.28-3.25.64-4a2.67,2.67,0,0,1,2-1.67,3.52,3.52,0,0,1,.68-.08h.24a4.73,4.73,0,0,1,3,1c1,.88,1.2,2.34,1.44,6.82.16,2.3.28,5.32.28,8.25a38.85,38.85,0,0,1-.52,7.38c1.2,0,2.4,0,3.29,0,1.8,0,2.8.12,3.24.71a1.48,1.48,0,0,1,.28.92,2.21,2.21,0,0,1-.4,1.27c-.48.59-1.28.63-3,.71-1.33.08-3.29.12-5,.12H192.9a7.1,7.1,0,0,1-1.28.08C190.22,306.41,189.38,306.41,188.85,304.74Z" transform="translate(52.19 6.12)"/><path class="cls-6" d="M202.64,296.73q-.12-1.49-.12-3.21v-1.15a17.59,17.59,0,0,1,4.13-10.71,5.57,5.57,0,0,1,4.09-2.22,6.31,6.31,0,0,1,3.37,1.27c2.16,1.07,3.21,3.41,3.45,5.87a12.13,12.13,0,0,1,0,1.23,10.88,10.88,0,0,1-1.25,5.31c-1.28,2.06-3.6,2.82-5.29,3.37a5.44,5.44,0,0,1-1.52.32,7.16,7.16,0,0,0-.12,1.27v.4c.2,1.86,1.52,3.25,2.48,3.25,1.57,0,2.45-3.25,4.57-3.37.4,0,.6.39.68,1l0,.43c0,2.38-1.76,6.75-5.53,6.75C206.57,306.57,203.33,303.35,202.64,296.73Zm11.47-10.27v-.32a3.42,3.42,0,0,0-.52-1.42c-.36-.48-.68-.68-1-.68-2,0-3.16,8.76-3.16,8.76S214.11,289.59,214.11,286.46Z" transform="translate(52.19 6.12)"/><path class="cls-7" d="M167.63,194.91c-24.33-.42-42.6-4.64-59.31-13.5-10.74-5.7-19.61-13.19-25.34-22.95a43.37,43.37,0,0,1-5.5-27.53c1.25-11,6-20.74,14.25-29.18.68-.7,1.9-1.38.18-2.17-7.43-3.39-15-6.13-23.73-4.69-1,.17-2.05.21-1.66,1.5.87,2.92-.11,5.1-3.68,5.73-4.07.72-7.4-1.1-8.68-4.2-.91-2.2-.81-4.4.85-6s4.25-1.58,6.52-.73a9.28,9.28,0,0,0,5.15.19c7.2-1.23,14.08.06,20.67,2.67,2.65,1,5.29,2.09,7.91,3.18.59.24,1.16.56,1.56,0A1.25,1.25,0,0,0,96.69,96c-4.76-7.11-10.27-13.6-18.87-17.64-2-1-1.77.42-2.33,1.24-1.52,2.24-5.06,3-7.71,1.77-3.17-1.48-5.42-6.22-4.17-8.8C64.75,70.21,67.88,69.11,71,70a3.12,3.12,0,0,1,1,.4c8.4,6.31,19.17,10.3,24.8,19.31,1.08,1.73,2,4.41,3.9,4.65s4-1.64,6-2.58c1.7-.81,3.36-1.69,5.11-2.39,2.87-1.14,2-2.35.15-3.52A78.74,78.74,0,0,1,92.74,69.7C85.6,61,80.7,51.3,82.61,40.34c2.53-14.48,14.06-24.6,32.71-20.93,5.31,1.05,6.83-.34,9.45-3.14,8.54-9.15,19.79-14,33.31-14.26S181.5,7.69,188.6,17.47c3.75,5.17,5.08,10.92,5.73,16.86.11,1.05-.09,2.39,1.2,2.78s2-.78,2.95-1.44c7.42-5.11,15.38-9.18,25.3-9.16,17.42,0,30,13.1,27.24,28.06-2.18,11.68-9.37,20.37-20.4,27-4.88,2.93-10,5.46-15.19,8-3.21,1.57-3.1,1.71,0,3.68,9,5.8,16.1,13,19.77,22.36.31.8,1.22,1.54,1.21,2.3-.07,6.7,4.95,7.47,11,7.75A39.38,39.38,0,0,1,258,127.85c3.83,1.29,4,3.67.87,6a53.81,53.81,0,0,1-14.17,7.47c-4.85,1.65-6.63,4.58-7.39,8.38-1.84,9.13-7.21,16.71-14,23.53a62.61,62.61,0,0,1-24.57,15.16C187.3,192.27,175.47,195.33,167.63,194.91Z" transform="translate(52.19 6.12)"/><path class="cls-8" d="M121.18,42.07c-.33-9.88,2.32-19.16,11.14-26.25,9.48-7.62,21.07-10.37,33.51-8,9,1.68,14.89,7.37,18.2,14.93,3.24,7.36,3.23,14.95,2.41,22.62-.17,1.57-.59,3.28.93,4.54,1.89,1.57,3.71,1.46,5.68-.15,3.3-2.72,6.44-5.55,9.43-8.52a30.67,30.67,0,0,1,19-8.66C235,31.19,244.82,41,242.53,53.37c-2,10.76-9.45,18.43-19.75,24.21-5.36,3-10.8,5.92-16.16,8.93a8.38,8.38,0,0,1-6.72.44c-16.92-5.25-34.42-6.36-52.12-5.26-6,.37-9.51-1.45-13.19-5.39A47.53,47.53,0,0,1,121.18,42.07Z" transform="translate(52.19 6.12)"/><path class="cls-9" d="M86.72,118.48c3.91-9.27,10.64-16.53,20.43-21.62a31.67,31.67,0,0,1,3.82-1.8,2.32,2.32,0,0,1,3.23,1.19c4,8.5,7.3,14.52,9.33,23.57,1.48,4.81,1.59,7.48,2.26,11.06.52,4.86,1.18,9.72,1.54,14.6.8,10.8-1.06,21.39-3.93,31.87-.56,2-1.51,3.44-4.89,2.45C102.32,175,91.41,165.61,85.07,152c-.94-2-1-4.35-1.61-6.53-.3-1.13.08-1.76,1.33-2.21a6.51,6.51,0,0,0,3.56-3.06c.54-1,1.15-2-.08-2.89-1.39-1-2.2.26-3.11.83-.45.28-.7.8-1.46,1.72-3.07-6.82-.32-12.76,1.6-18.73A17.64,17.64,0,0,0,86.72,118.48Z" transform="translate(52.19 6.12)"/><path class="cls-9" d="M168.34,146.1a192.9,192.9,0,0,1-3.66,36c-1.31,6.44-5.5,8.47-12.62,6.1-3-1-4-3-3.51-5.61.6-3.25,1.68-6.44,2.09-9.7,1.7-13.33,2.71-26.63,1.47-40.1a119.25,119.25,0,0,0-8.63-34.05,89.84,89.84,0,0,0-4.42-8.69c-.86-1.61-.34-2.36,1.65-2.48,3.79-.24,7.58-.48,11.36-.76a3.13,3.13,0,0,1,3.31,2,125,125,0,0,1,9.68,27.57C167.46,126.94,167.77,137.55,168.34,146.1Z" transform="translate(52.19 6.12)"/><path class="cls-9" d="M195.32,158.68c-.72,6.3-2.46,17.41-3.63,25.1A34.6,34.6,0,0,0,202,181c4-1.61,8.35-3.49,9.28-7.8,2.7-12.41,2.74-25,1.78-37.51-.7-9.12-2.56-18.12-4.11-27.15A53.26,53.26,0,0,0,207,102c-1.7-6.41-6.6-10.23-20.32-11.3,4.29,11.21,7.46,29.61,8.6,39.69a119.53,119.53,0,0,1,.71,17.81" transform="translate(52.19 6.12)"/><path class="cls-8" d="M88.43,41.1c.11-5.59,2.63-11.43,9.48-15.22,5.64-3.12,11.72-3.31,17.91-1.2,1.93.66,2,1.95,1.49,3.42a45.24,45.24,0,0,0-2.41,21.45c1.37,10.67,5.46,20.47,14,28.56,1,.91,2.55,1.75,1.83,3.17s-2.25,1.87-3.84,2.21c-4.7,1-7.67-1.59-11-3.77C107.49,74.19,100,68,94.57,60,90.88,54.57,88.38,48.75,88.43,41.1Z" transform="translate(52.19 6.12)"/><path class="cls-10" d="M86.72,118.48a2.46,2.46,0,0,1-1.42,2.68A3.18,3.18,0,0,1,86.72,118.48Z" transform="translate(52.19 6.12)"/><path class="cls-11" d="M102.29,127.08c-.2,1.87-.62,4.62-3.32,4.63-2.39,0-3.09-2.69-3.13-4.76,0-2.3.66-5.2,3.32-5.22C101.43,121.71,102.24,124.57,102.29,127.08Z" transform="translate(52.19 6.12)"/></g></g></svg>